<svg xmlns="http://www.w3.org/2000/svg" width="48" height="48"><path style="fill-rule:nonzero;fill:#b0bec5;fill-opacity:1;stroke-width:3;stroke-linecap:butt;stroke-linejoin:round;stroke:#ccc;stroke-opacity:1;stroke-miterlimit:10" d="M103.913 10.744c6.892-.014 14.667.456 21.502 1.154v23.936H111.09c-7.917 0-14.34 6.422-14.34 14.34v14.324h28.665l-3.588 28.664H96.75v68.094H68.087V93.162H46.585V64.498h21.502V46.585c0-19.793 16.033-35.84 35.826-35.84Zm0 0" transform="matrix(.27433 0 0 .27433 .408 .408)"/><path style="stroke:none;fill-rule:nonzero;fill:#236da2;fill-opacity:1" d="M28.914 3.355c-5.43 0-9.828 4.403-9.828 9.832v4.915h-5.898v7.863h5.898v18.68h7.863v-18.68h6.88l.983-7.863H26.95v-3.93a3.934 3.934 0 0 1 3.934-3.934h3.93V3.672c-1.876-.192-4.008-.32-5.899-.317Zm0 0"/></svg>